<?xml version="1.0" encoding="UTF-8"?><svg id="Livello_2" xmlns="http://www.w3.org/2000/svg" viewBox="0 0 250 154.48"><defs><style>.cls-1{fill:#fff;}</style></defs><g id="Livello_2-2"><g><path class="cls-1" d="M95.52,106.74c-22.95,6.66-41.07,24.78-47.76,47.73-6.69-22.95-24.78-41.07-47.76-47.73,22.98-6.66,41.07-24.78,47.76-47.73,6.69,22.95,24.81,41.07,47.76,47.73Z"/><path class="cls-1" d="M250,47.73c-22.95,6.66-41.07,24.78-47.76,47.73-6.69-22.95-24.78-41.07-47.76-47.73,22.98-6.66,41.07-24.78,47.76-47.73,6.69,22.95,24.81,41.07,47.76,47.73Z"/><polygon class="cls-1" points="47.76 0 202.24 95.47 202.24 154.48 47.76 59.01 47.76 0"/></g></g></svg>