<?xml version="1.0" encoding="UTF-8"?><svg id="Livello_2" xmlns="http://www.w3.org/2000/svg" viewBox="0 0 500 84.79"><defs><style>.cls-1{fill:#fff;}</style></defs><g id="Livello_2-2"><g><g><path class="cls-1" d="M52.43,58.59c-12.6,3.65-22.55,13.6-26.22,26.2-3.67-12.6-13.6-22.55-26.22-26.2,12.61-3.65,22.55-13.6,26.22-26.2,3.67,12.6,13.62,22.55,26.22,26.2Z"/><path class="cls-1" d="M137.22,26.2c-12.6,3.65-22.55,13.6-26.22,26.2-3.67-12.6-13.6-22.55-26.22-26.2,12.61-3.65,22.55-13.6,26.22-26.2,3.67,12.6,13.62,22.55,26.22,26.2Z"/><polygon class="cls-1" points="26.22 0 111.01 52.4 111.01 84.79 26.22 32.39 26.22 0"/></g><g><path class="cls-1" d="M189.61,26.2h11.75l25.28,26.43h1.61V26.2h7.06V58.59h-11.79l-25.28-26.43h-1.61v26.43h-7.02V26.2Z"/><path class="cls-1" d="M264.94,47.81v10.78h-7.57v-10.78l-22.07-21.61h9.5l16.24,15.74h.69l16.24-15.74h9.08l-22.11,21.61Z"/><path class="cls-1" d="M340.78,58.59h-10.23l-16.24-13.4h-1.28l-16.29,13.4h-10.14l19.59-16.24-19.13-16.15h10.18l15.78,13.17h1.24l15.78-13.17h10.23l-19.08,16.1,19.59,16.29Z"/><path class="cls-1" d="M362.41,52.76h28.63c2.17,0,3.82-.35,4.95-1.03,1.13-.69,1.7-1.69,1.7-3.01s-.57-2.27-1.7-2.96c-1.13-.69-2.78-1.03-4.95-1.03h-14.59c-4.53,0-8-.8-10.41-2.41-2.42-1.61-3.62-3.89-3.62-6.86s1.21-5.25,3.62-6.86c2.42-1.61,5.89-2.41,10.41-2.41h28.63l-5.96,5.83h-22.16c-4.5,0-6.74,1.25-6.74,3.76s2.25,3.76,6.74,3.76h14.59c4.53,0,8,.82,10.41,2.45,2.42,1.64,3.62,4,3.62,7.09s-1.2,5.41-3.6,7.04-5.88,2.45-10.44,2.45h-29.13v-5.83Z"/><path class="cls-1" d="M434.72,47.81v10.78h-7.57v-10.78l-22.07-21.61h9.5l16.24,15.74h.69l16.24-15.74h9.08l-22.11,21.61Z"/><path class="cls-1" d="M456.83,52.76h28.63c2.17,0,3.82-.35,4.95-1.03,1.13-.69,1.7-1.69,1.7-3.01s-.57-2.27-1.7-2.96c-1.13-.69-2.78-1.03-4.95-1.03h-14.59c-4.53,0-8-.8-10.41-2.41-2.42-1.61-3.62-3.89-3.62-6.86s1.21-5.25,3.62-6.86,5.89-2.41,10.41-2.41h28.63v5.83h-28.12c-4.5,0-6.74,1.25-6.74,3.76s2.25,3.76,6.74,3.76h14.59c4.53,0,8,.82,10.41,2.45,2.42,1.64,3.62,4,3.62,7.09s-1.2,5.41-3.6,7.04c-2.4,1.64-5.88,2.45-10.44,2.45h-29.13v-5.83Z"/><path class="cls-1" d="M353.54,42.4c-2.6,.75-4.65,2.8-5.4,5.4-.76-2.6-2.8-4.65-5.4-5.4,2.6-.75,4.65-2.8,5.4-5.4,.76,2.6,2.81,4.65,5.4,5.4Z"/></g></g></g></svg>